<svg xmlns="http://www.w3.org/2000/svg" viewBox="0 0 512 512" role="img" aria-label="LifeHub">
  <defs>
    <linearGradient id="background" x1="70" y1="40" x2="440" y2="472" gradientUnits="userSpaceOnUse">
      <stop stop-color="#D9EFFC"/>
      <stop offset="1" stop-color="#A9D3EE"/>
    </linearGradient>
    <linearGradient id="mark" x1="170" y1="142" x2="341" y2="364" gradientUnits="userSpaceOnUse">
      <stop stop-color="#326F9F"/>
      <stop offset="1" stop-color="#193B61"/>
    </linearGradient>
  </defs>
  <rect width="512" height="512" rx="112" fill="url(#background)"/>
  <path d="M256 112c11 66 39 94 105 105-66 11-94 39-105 105-11-66-39-94-105-105 66-11 94-39 105-105Z" fill="url(#mark)"/>
  <path d="M364 285c5 31 18 44 49 49-31 5-44 18-49 49-5-31-18-44-49-49 31-5 44-18 49-49Z" fill="#557FA3"/>
  <path d="M154 304c4 24 14 34 38 38-24 4-34 14-38 38-4-24-14-34-38-38 24-4 34-14 38-38Z" fill="#FFFFFF" fill-opacity=".9"/>
</svg>
